name kv04_filtered_grf.mot
datacolumns 37
datarows 14
range 0.002500 0.009000
endheader
time	1_ground_force_vx	1_ground_force_vy	1_ground_force_vz	1_ground_force_px	1_ground_force_py	1_ground_force_pz	1_ground_torque_x	1_ground_torque_y	1_ground_torque_z	2_ground_force_vx	2_ground_force_vy	2_ground_force_vz	2_ground_force_px	2_ground_force_py	2_ground_force_pz	2_ground_torque_x	2_ground_torque_y	2_ground_torque_z	3_ground_force_vx	3_ground_force_vy	3_ground_force_vz	3_ground_force_px	3_ground_force_py	3_ground_force_pz	3_ground_torque_x	3_ground_torque_y	3_ground_torque_z	4_ground_force_vx	4_ground_force_vy	4_ground_force_vz	4_ground_force_px	4_ground_force_py	4_ground_force_pz	4_ground_torque_x	4_ground_torque_y	4_ground_torque_z
            0.002500	           -0.065426	            0.137966	            0.450841	            0.233713	            0.000000	            1.781005	           -0.126786	            0.050393	           -0.023606	            0.000000	           -0.000000	           -0.000000	           -0.226824	            0.000000	            0.174299	           -0.000000	            0.000000	           -0.000000	           -2.874002	           -1.221988	           -1.805804	            0.386516	            0.970272	            1.074646	           -0.017754	            0.083020	           -0.001616	            1.649053	            1.459242	            0.270364	           -0.368810	            0.969566	            1.107848	            0.014614	            0.025174	            0.025934
            0.003000	           -0.062714	            0.128752	            0.426443	            0.233713	            0.000000	            1.781005	           -0.118689	            0.048028	           -0.022181	            0.000000	           -0.000000	           -0.000000	           -0.226824	            0.000000	            0.174299	           -0.000000	            0.000000	           -0.000000	           -2.727604	           -1.158977	           -1.718346	            0.386516	            0.970272	            1.074646	           -0.016133	            0.078712	           -0.001337	            1.602119	            1.387061	            0.249020	           -0.368810	            0.969566	            1.107848	            0.013687	            0.023536	            0.023722
            0.003500	           -0.059529	            0.118358	            0.398491	            0.233713	            0.000000	            1.781005	           -0.109527	            0.045284	           -0.020563	            0.000000	           -0.000000	           -0.000000	           -0.226824	            0.000000	            0.174299	           -0.000000	            0.000000	           -0.000000	           -2.583090	           -1.096582	           -1.631694	            0.386521	            0.970274	            1.074648	           -0.014543	            0.074449	           -0.001049	            1.555134	            1.315293	            0.227627	           -0.368821	            0.969575	            1.107849	            0.012778	            0.021912	            0.021511
            0.004000	           -0.055860	            0.106775	            0.366931	            0.233713	            0.000000	            1.781005	           -0.099290	            0.042155	           -0.018748	            0.000000	           -0.000000	           -0.000000	           -0.226824	            0.000000	            0.174299	           -0.000000	            0.000000	           -0.000000	           -2.440700	           -1.034915	           -1.546020	            0.386527	            0.970276	            1.074650	           -0.012989	            0.070237	           -0.000755	            1.508171	            1.244056	            0.206227	           -0.368832	            0.969585	            1.107851	            0.011888	            0.020306	            0.019306
            0.004500	           -0.051700	            0.093994	            0.331725	            0.233713	            0.000000	            1.781005	           -0.087969	            0.038634	           -0.016735	            0.000000	           -0.000000	           -0.000000	           -0.226824	            0.000000	            0.174299	           -0.000000	            0.000000	           -0.000000	           -2.300666	           -0.974081	           -1.461495	            0.386532	            0.970277	            1.074652	           -0.011471	            0.066085	           -0.000455	            1.461297	            1.173463	            0.184861	           -0.368843	            0.969594	            1.107852	            0.011019	            0.018724	            0.017109
            0.005000	           -0.047043	            0.080016	            0.292851	            0.233713	            0.000000	            1.781005	           -0.075564	            0.034717	           -0.014524	            0.000000	           -0.000000	           -0.000000	           -0.226824	            0.000000	            0.174299	           -0.000000	            0.000000	           -0.000000	           -2.163209	           -0.914185	           -1.378281	            0.386537	            0.970279	            1.074654	           -0.009993	            0.061999	           -0.000152	            1.414580	            1.103628	            0.163568	           -0.368854	            0.969603	            1.107854	            0.010171	            0.017168	            0.014925
            0.005500	           -0.041886	            0.064846	            0.250307	            0.233713	            0.000000	            1.781005	           -0.062078	            0.030405	           -0.012115	            0.000000	           -0.000000	           -0.000000	           -0.226824	            0.000000	            0.174299	           -0.000000	            0.000000	           -0.000000	           -2.028536	           -0.855325	           -1.296534	            0.386543	            0.970281	            1.074656	           -0.008558	            0.057985	            0.000155	            1.368082	            1.034656	            0.142401	           -0.368865	            0.969612	            1.107855	            0.009345	            0.015641	            0.012757
            0.006000	           -0.036226	            0.048497	            0.204107	            0.233713	            0.000000	            1.781005	           -0.047521	            0.025696	           -0.009509	            0.000000	           -0.000000	           -0.000000	           -0.226824	            0.000000	            0.174299	           -0.000000	            0.000000	           -0.000000	           -1.896845	           -0.797594	           -1.216410	            0.386548	            0.970283	            1.074658	           -0.007166	            0.054051	            0.000463	            1.321864	            0.966654	            0.121383	           -0.368876	            0.969621	            1.107857	            0.008542	            0.014149	            0.010608
            0.006500	           -0.030066	            0.030988	            0.154288	            0.233713	            0.000000	            1.781005	           -0.031909	            0.020593	           -0.006709	            0.000000	           -0.000000	           -0.000000	           -0.226824	            0.000000	            0.174299	           -0.000000	            0.000000	           -0.000000	           -1.768317	           -0.741081	           -1.138054	            0.386554	            0.970285	            1.074659	           -0.005821	            0.050202	            0.000771	            1.275986	            0.899719	            0.100552	           -0.368886	            0.969630	            1.107858	            0.007763	            0.012693	            0.008482
            0.007000	           -0.023409	            0.012346	            0.100906	            0.233713	            0.000000	            1.781005	           -0.015264	            0.015100	           -0.003720	            0.000000	           -0.000000	           -0.000000	           -0.226824	            0.000000	            0.174299	           -0.000000	            0.000000	           -0.000000	           -1.643123	           -0.685868	           -1.061603	            0.386559	            0.970287	            1.074661	           -0.004525	            0.046444	            0.001078	            1.230502	            0.833948	            0.079943	           -0.368897	            0.969638	            1.107860	            0.007008	            0.011278	            0.006383
            0.007500	           -0.016263	           -0.007396	            0.044038	            0.233713	            0.000000	            1.781005	            0.002385	            0.009226	           -0.000544	            0.000000	           -0.000000	           -0.000000	           -0.226824	            0.000000	            0.174299	           -0.000000	            0.000000	           -0.000000	           -1.521418	           -0.632031	           -0.987189	            0.386565	            0.970289	            1.074663	           -0.003279	            0.042782	            0.001382	            1.185463	            0.769431	            0.059589	           -0.368908	            0.969647	            1.107862	            0.006277	            0.009907	            0.004313
            0.008000	           -0.008636	           -0.028197	           -0.016213	            0.233713	            0.000000	            1.781005	            0.021002	            0.002978	            0.002810	            0.000000	           -0.000000	           -0.000000	           -0.226824	            0.000000	            0.174299	           -0.000000	            0.000000	           -0.000000	           -1.403347	           -0.579646	           -0.914928	            0.386570	            0.970291	            1.074665	           -0.002084	            0.039222	            0.001681	            1.140919	            0.706255	            0.039539	           -0.368918	            0.969655	            1.107864	            0.005571	            0.008583	            0.002277
            0.008500	           -0.000542	           -0.050005	           -0.079723	            0.233713	            0.000000	            1.781005	            0.040543	           -0.003631	            0.006335	            0.000000	           -0.000000	           -0.000000	           -0.226824	            0.000000	            0.174299	           -0.000000	            0.000000	           -0.000000	           -1.289032	           -0.528772	           -0.844941	            0.386575	            0.970293	            1.074667	           -0.000942	            0.035767	            0.001974	            1.096914	            0.644499	            0.019805	           -0.368927	            0.969663	            1.107866	            0.004889	            0.007308	            0.000277
            0.009000	            0.008003	           -0.072764	           -0.146343	            0.233713	            0.000000	            1.781005	            0.060957	           -0.010586	            0.010023	            0.000000	           -0.000000	           -0.000000	           -0.226824	            0.000000	            0.174299	           -0.000000	            0.000000	           -0.000000	           -1.178586	           -0.479469	           -0.777333	            0.386581	            0.970296	            1.074670	            0.000145	            0.032422	            0.002259	            1.053491	            0.584241	            0.000416	           -0.368937	            0.969670	            1.107867	            0.004233	            0.006085	           -0.001683
